<svg xmlns="http://www.w3.org/2000/svg" viewBox="0 0 960 540" shape-rendering="crispEdges">
  <rect width="960" height="540" fill="#1a2325"/>
  <rect y="0" width="960" height="190" fill="#23343f"/>
  <rect y="190" width="960" height="120" fill="#233033"/>
  <rect y="310" width="960" height="230" fill="#151b1a"/>
  <rect x="0" y="0" width="960" height="540" fill="#000" opacity=".08"/>
  <rect x="0" y="164" width="140" height="8" fill="#314a56"/>
  <rect x="180" y="146" width="240" height="10" fill="#314a56"/>
  <rect x="520" y="170" width="280" height="8" fill="#314a56"/>
  <rect x="92" y="216" width="106" height="180" fill="#20292b"/>
  <rect x="118" y="248" width="18" height="26" fill="#c98f62"/>
  <rect x="158" y="290" width="18" height="26" fill="#6f9aa0" opacity=".5"/>
  <rect x="248" y="176" width="130" height="220" fill="#253234"/>
  <rect x="278" y="214" width="20" height="26" fill="#c98f62"/>
  <rect x="332" y="262" width="20" height="26" fill="#e3b174"/>
  <rect x="420" y="238" width="94" height="158" fill="#20292b"/>
  <rect x="452" y="282" width="18" height="24" fill="#c98f62"/>
  <rect x="650" y="188" width="146" height="208" fill="#252f30"/>
  <rect x="684" y="228" width="18" height="24" fill="#c98f62"/>
  <rect x="738" y="276" width="18" height="24" fill="#c98f62"/>
  <rect x="826" y="226" width="96" height="170" fill="#1f2829"/>
  <rect x="852" y="260" width="16" height="22" fill="#e3b174"/>
  <rect x="0" y="396" width="960" height="34" fill="#0f1515"/>
  <rect x="0" y="430" width="960" height="110" fill="#111716"/>
  <rect x="86" y="380" width="82" height="16" fill="#0b1211"/>
  <rect x="108" y="356" width="34" height="40" fill="#0b1211"/>
  <rect x="168" y="374" width="92" height="22" fill="#0b1211"/>
  <rect x="706" y="372" width="108" height="24" fill="#0b1211"/>
  <rect x="794" y="354" width="46" height="42" fill="#0b1211"/>
  <rect x="75" y="254" width="10" height="138" fill="#9d9484"/>
  <rect x="59" y="236" width="42" height="20" fill="#c98f62"/>
  <rect x="51" y="256" width="58" height="18" fill="#c98f62" opacity=".28"/>
  <rect x="42" y="278" width="78" height="24" fill="#c98f62" opacity=".12"/>
  <rect x="344" y="350" width="238" height="20" fill="#a97757"/>
  <rect x="362" y="380" width="202" height="18" fill="#7b5d45"/>
  <rect x="386" y="398" width="14" height="42" fill="#4b3930"/>
  <rect x="526" y="398" width="14" height="42" fill="#4b3930"/>
  <rect x="424" y="318" width="22" height="34" fill="#c8beaa"/>
  <rect x="424" y="296" width="22" height="20" fill="#d7c4a1"/>
  <rect x="464" y="318" width="22" height="34" fill="#b2a593"/>
  <rect x="464" y="296" width="22" height="20" fill="#c8beaa"/>
  <rect x="0" y="448" width="960" height="4" fill="#6f9aa0" opacity=".2"/>
  <rect x="120" y="470" width="180" height="4" fill="#c98f62" opacity=".18"/>
  <rect x="610" y="462" width="220" height="4" fill="#6f9aa0" opacity=".16"/>
</svg>
