<svg xmlns="http://www.w3.org/2000/svg" viewBox="0 0 960 540" shape-rendering="crispEdges">
  <rect width="960" height="540" fill="#11191d"/>
  <rect y="0" width="960" height="150" fill="#182631"/>
  <rect y="150" width="960" height="122" fill="#152228"/>
  <rect y="272" width="960" height="268" fill="#0f1515"/>
  <rect x="0" y="122" width="180" height="8" fill="#304756"/>
  <rect x="230" y="104" width="246" height="8" fill="#304756"/>
  <rect x="560" y="132" width="282" height="8" fill="#304756"/>
  <rect x="56" y="204" width="108" height="124" fill="#20292b"/>
  <rect x="88" y="236" width="18" height="24" fill="#c98f62" opacity=".8"/>
  <rect x="226" y="176" width="138" height="152" fill="#222c2e"/>
  <rect x="260" y="214" width="18" height="24" fill="#6f9aa0" opacity=".42"/>
  <rect x="318" y="260" width="18" height="24" fill="#c98f62" opacity=".74"/>
  <rect x="680" y="174" width="156" height="154" fill="#20292b"/>
  <rect x="716" y="214" width="18" height="24" fill="#c98f62"/>
  <rect x="770" y="260" width="18" height="24" fill="#c98f62" opacity=".64"/>
  <rect x="136" y="328" width="12" height="152" fill="#9d9484" opacity=".52"/>
  <rect x="118" y="248" width="168" height="20" fill="#293f46"/>
  <rect x="108" y="268" width="192" height="74" fill="#172327"/>
  <rect x="126" y="282" width="64" height="44" fill="#6f9aa0" opacity=".18"/>
  <rect x="204" y="282" width="72" height="44" fill="#6f9aa0" opacity=".14"/>
  <rect x="108" y="342" width="192" height="8" fill="#eee7d8" opacity=".16"/>
  <rect x="112" y="350" width="8" height="74" fill="#9d9484" opacity=".28"/>
  <rect x="292" y="350" width="8" height="74" fill="#9d9484" opacity=".24"/>
  <rect x="364" y="378" width="160" height="14" fill="#233033"/>
  <rect x="392" y="362" width="104" height="18" fill="#1a2427"/>
  <rect x="520" y="386" width="76" height="10" fill="#233033"/>
  <rect x="642" y="336" width="136" height="58" fill="#aa9a76" opacity=".7"/>
  <rect x="662" y="350" width="26" height="20" fill="#223842"/>
  <rect x="700" y="350" width="26" height="20" fill="#223842"/>
  <rect x="738" y="356" width="18" height="16" fill="#e3b174" opacity=".8"/>
  <rect x="646" y="392" width="28" height="28" fill="#070b0b"/>
  <rect x="734" y="392" width="28" height="28" fill="#070b0b"/>
  <rect x="0" y="424" width="960" height="116" fill="#0b1111"/>
  <rect x="0" y="420" width="960" height="8" fill="#1e2928"/>
  <rect x="120" y="452" width="250" height="4" fill="#6f9aa0" opacity=".15"/>
  <rect x="438" y="462" width="420" height="4" fill="#c98f62" opacity=".18"/>
  <rect x="560" y="492" width="260" height="4" fill="#e3b174" opacity=".12"/>
</svg>
