<svg xmlns="http://www.w3.org/2000/svg" viewBox="0 0 960 540" shape-rendering="crispEdges">
  <rect width="960" height="540" fill="#11191d"/>
  <rect x="0" y="0" width="960" height="156" fill="#17242d"/>
  <rect x="0" y="156" width="960" height="384" fill="#121b1e"/>
  <rect x="64" y="78" width="832" height="358" fill="#0d1418"/>
  <rect x="88" y="102" width="784" height="310" fill="#1b3038"/>
  <rect x="460" y="102" width="14" height="310" fill="#9d9484" opacity=".38"/>
  <rect x="88" y="248" width="784" height="14" fill="#9d9484" opacity=".34"/>
  <rect x="118" y="122" width="280" height="44" fill="#263f4a"/>
  <rect x="518" y="124" width="268" height="36" fill="#263f4a"/>
  <rect x="140" y="188" width="188" height="32" fill="#223842"/>
  <rect x="552" y="204" width="230" height="36" fill="#223842"/>
  <rect x="120" y="286" width="300" height="42" fill="#203641"/>
  <rect x="540" y="304" width="278" height="42" fill="#203641"/>
  <rect x="0" y="436" width="960" height="104" fill="#141917"/>
  <rect x="112" y="436" width="736" height="28" fill="#2b2520"/>
  <rect x="156" y="466" width="190" height="20" fill="#1d2424"/>
  <rect x="610" y="466" width="160" height="20" fill="#1d2424"/>
  <rect x="210" y="360" width="92" height="20" fill="#c98f62" opacity=".52"/>
  <rect x="580" y="354" width="116" height="24" fill="#c98f62" opacity=".42"/>
  <rect x="0" y="0" width="960" height="540" fill="#6f9aa0" opacity=".06"/>
  <rect x="144" y="98" width="6" height="48" fill="#a6cdd2" opacity=".42"/>
  <rect x="248" y="122" width="6" height="68" fill="#a6cdd2" opacity=".32"/>
  <rect x="364" y="86" width="6" height="74" fill="#a6cdd2" opacity=".36"/>
  <rect x="534" y="112" width="6" height="58" fill="#a6cdd2" opacity=".3"/>
  <rect x="672" y="84" width="6" height="80" fill="#a6cdd2" opacity=".36"/>
  <rect x="806" y="134" width="6" height="64" fill="#a6cdd2" opacity=".28"/>
</svg>
